<svg xmlns="http://www.w3.org/2000/svg" width="540" height="450" viewBox="0 0 1080 900"><path fill="#00384E" d="M0 0h1080v900H0z"/><g fill-opacity=".1"><path fill="#444" d="M90 150 0 300h180z"/><path d="M90 150 180 0H0z"/><path fill="#AAA" d="M270 150 360 0H180z"/><path fill="#DDD" d="m450 150-90 150h180z"/><path fill="#999" d="M450 150 540 0H360z"/><path d="m630 150-90 150h180z"/><path fill="#DDD" d="M630 150 720 0H540z"/><path fill="#444" d="m810 150-90 150h180z"/><path fill="#FFF" d="M810 150 900 0H720z"/><path fill="#DDD" d="m990 150-90 150h180z"/><path fill="#444" d="m990 150 90-150H900z"/><path fill="#DDD" d="M90 450 0 600h180z"/><path d="m90 450 90-150H0z"/><path fill="#666" d="m270 450-90 150h180z"/><path fill="#AAA" d="m270 450 90-150H180z"/><path fill="#DDD" d="m450 450-90 150h180z"/><path fill="#999" d="m450 450 90-150H360zm180 0-90 150h180z"/><path fill="#FFF" d="m630 450 90-150H540z"/><path d="m810 450-90 150h180z"/><path fill="#DDD" d="m810 450 90-150H720z"/><path fill="#AAA" d="m990 450-90 150h180z"/><path fill="#444" d="m990 450 90-150H900z"/><path fill="#222" d="M90 750 0 900h180z"/><path d="m270 750-90 150h180z"/><path fill="#DDD" d="m270 750 90-150H180z"/><path d="m450 750 90-150H360zm180 0-90 150h180z"/><path fill="#444" d="m630 750 90-150H540z"/><path fill="#AAA" d="m810 750-90 150h180z"/><path fill="#666" d="m810 750 90-150H720z"/><path fill="#999" d="m990 750-90 150h180zM180 0 90 150h180z"/><path fill="#444" d="m360 0-90 150h180z"/><path fill="#FFF" d="m540 0-90 150h180z"/><path d="m900 0-90 150h180z"/><path fill="#222" d="m0 300-90 150H90z"/><path fill="#FFF" d="m0 300 90-150H-90zm180 0L90 450h180z"/><path fill="#666" d="m180 300 90-150H90z"/><path fill="#222" d="m360 300-90 150h180z"/><path fill="#FFF" d="m360 300 90-150H270z"/><path fill="#444" d="m540 300-90 150h180z"/><path fill="#222" d="m540 300 90-150H450z"/><path fill="#AAA" d="m720 300-90 150h180z"/><path fill="#666" d="m720 300 90-150H630z"/><path fill="#FFF" d="m900 300-90 150h180z"/><path fill="#999" d="m900 300 90-150H810z"/><path d="m0 600-90 150H90z"/><path fill="#666" d="m0 600 90-150H-90z"/><path fill="#AAA" d="M180 600 90 750h180z"/><path fill="#444" d="m180 600 90-150H90zm180 0-90 150h180z"/><path fill="#999" d="m360 600 90-150H270z"/><path fill="#666" d="m540 600 90-150H450z"/><path fill="#222" d="m720 600-90 150h180z"/><path fill="#FFF" d="m900 600-90 150h180z"/><path fill="#222" d="m900 600 90-150H810z"/><path fill="#DDD" d="m0 900 90-150H-90z"/><path fill="#444" d="m180 900 90-150H90z"/><path fill="#FFF" d="m360 900 90-150H270z"/><path fill="#AAA" d="m540 900 90-150H450z"/><path fill="#FFF" d="m720 900 90-150H630z"/><path fill="#222" d="m900 900 90-150H810zm180-600-90 150h180z"/><path fill="#FFF" d="m1080 300 90-150H990z"/><path d="m1080 600-90 150h180z"/><path fill="#666" d="m1080 600 90-150H990z"/><path fill="#DDD" d="m1080 900 90-150H990z"/></g></svg>