<svg xmlns="http://www.w3.org/2000/svg" viewBox="0 0 1200 800"><path fill="#FF8781" d="M0 0h1200v800H0z"/><defs><linearGradient id="a" x1="600" x2="600" y1="25" y2="777" gradientUnits="userSpaceOnUse"><stop offset="0" stop-color="#FF8781"/><stop offset="1" stop-color="#F699FF"/></linearGradient><linearGradient id="b" x1="650" x2="650" y1="25" y2="777" gradientUnits="userSpaceOnUse"><stop offset="0" stop-color="#ff838a"/><stop offset="1" stop-color="#ea92fc"/></linearGradient><linearGradient id="c" x1="700" x2="700" y1="25" y2="777" gradientUnits="userSpaceOnUse"><stop offset="0" stop-color="#ff8599"/><stop offset="1" stop-color="#de8cfa"/></linearGradient><linearGradient id="d" x1="750" x2="750" y1="25" y2="777" gradientUnits="userSpaceOnUse"><stop offset="0" stop-color="#ff88a7"/><stop offset="1" stop-color="#d086f6"/></linearGradient><linearGradient id="e" x1="800" x2="800" y1="25" y2="777" gradientUnits="userSpaceOnUse"><stop offset="0" stop-color="#ff8ab5"/><stop offset="1" stop-color="#c381f2"/></linearGradient><linearGradient id="f" x1="850" x2="850" y1="25" y2="777" gradientUnits="userSpaceOnUse"><stop offset="0" stop-color="#ff8cc2"/><stop offset="1" stop-color="#b57bee"/></linearGradient><linearGradient id="g" x1="900" x2="900" y1="25" y2="777" gradientUnits="userSpaceOnUse"><stop offset="0" stop-color="#ff8ecf"/><stop offset="1" stop-color="#a677ea"/></linearGradient><linearGradient id="h" x1="950" x2="950" y1="25" y2="777" gradientUnits="userSpaceOnUse"><stop offset="0" stop-color="#ff90db"/><stop offset="1" stop-color="#9873e4"/></linearGradient><linearGradient id="i" x1="1000" x2="1000" y1="25" y2="777" gradientUnits="userSpaceOnUse"><stop offset="0" stop-color="#ff92e7"/><stop offset="1" stop-color="#8b6fdf"/></linearGradient><linearGradient id="j" x1="1050" x2="1050" y1="25" y2="777" gradientUnits="userSpaceOnUse"><stop offset="0" stop-color="#ff95f2"/><stop offset="1" stop-color="#7e6bd9"/></linearGradient><linearGradient id="k" x1="1100" x2="1100" y1="25" y2="777" gradientUnits="userSpaceOnUse"><stop offset="0" stop-color="#ff97fd"/><stop offset="1" stop-color="#7169d3"/></linearGradient><linearGradient id="l" x1="1150" x2="1150" y1="25" y2="777" gradientUnits="userSpaceOnUse"><stop offset="0" stop-color="#F699FF"/><stop offset="1" stop-color="#66C"/></linearGradient></defs><path fill="url(#a)" d="M0 0h1200v800H0z"/><path fill="url(#b)" d="M100 0h1100v800H100z"/><path fill="url(#c)" d="M200 0h1000v800H200z"/><path fill="url(#d)" d="M300 0h900v800H300z"/><path fill="url(#e)" d="M400 0h800v800H400z"/><path fill="url(#f)" d="M500 0h700v800H500z"/><path fill="url(#g)" d="M600 0h600v800H600z"/><path fill="url(#h)" d="M700 0h500v800H700z"/><path fill="url(#i)" d="M800 0h400v800H800z"/><path fill="url(#j)" d="M900 0h300v800H900z"/><path fill="url(#k)" d="M1000 0h200v800h-200z"/><path fill="url(#l)" d="M1100 0h100v800h-100z"/></svg>