<svg xmlns="http://www.w3.org/2000/svg" viewBox="0 0 1200 800"><path fill="#8D0000" d="M0 0h1200v800H0z"/><defs><linearGradient id="a" x1="600" x2="600" y1="25" y2="777" gradientUnits="userSpaceOnUse"><stop offset="0" stop-color="#8D0000"/><stop offset="1" stop-color="#770080"/></linearGradient><linearGradient id="b" x1="650" x2="650" y1="25" y2="777" gradientUnits="userSpaceOnUse"><stop offset="0" stop-color="#8c000e"/><stop offset="1" stop-color="#69007c"/></linearGradient><linearGradient id="c" x1="700" x2="700" y1="25" y2="777" gradientUnits="userSpaceOnUse"><stop offset="0" stop-color="#8b001b"/><stop offset="1" stop-color="#5c0079"/></linearGradient><linearGradient id="d" x1="750" x2="750" y1="25" y2="777" gradientUnits="userSpaceOnUse"><stop offset="0" stop-color="#890028"/><stop offset="1" stop-color="#4f0075"/></linearGradient><linearGradient id="e" x1="800" x2="800" y1="25" y2="777" gradientUnits="userSpaceOnUse"><stop offset="0" stop-color="#880035"/><stop offset="1" stop-color="#430071"/></linearGradient><linearGradient id="f" x1="850" x2="850" y1="25" y2="777" gradientUnits="userSpaceOnUse"><stop offset="0" stop-color="#870042"/><stop offset="1" stop-color="#37006d"/></linearGradient><linearGradient id="g" x1="900" x2="900" y1="25" y2="777" gradientUnits="userSpaceOnUse"><stop offset="0" stop-color="#86004e"/><stop offset="1" stop-color="#2d006a"/></linearGradient><linearGradient id="h" x1="950" x2="950" y1="25" y2="777" gradientUnits="userSpaceOnUse"><stop offset="0" stop-color="#85005a"/><stop offset="1" stop-color="#206"/></linearGradient><linearGradient id="i" x1="1000" x2="1000" y1="25" y2="777" gradientUnits="userSpaceOnUse"><stop offset="0" stop-color="#840066"/><stop offset="1" stop-color="#190062"/></linearGradient><linearGradient id="j" x1="1050" x2="1050" y1="25" y2="777" gradientUnits="userSpaceOnUse"><stop offset="0" stop-color="#820072"/><stop offset="1" stop-color="#10005e"/></linearGradient><linearGradient id="k" x1="1100" x2="1100" y1="25" y2="777" gradientUnits="userSpaceOnUse"><stop offset="0" stop-color="#81007e"/><stop offset="1" stop-color="#08005b"/></linearGradient><linearGradient id="l" x1="1150" x2="1150" y1="25" y2="777" gradientUnits="userSpaceOnUse"><stop offset="0" stop-color="#770080"/><stop offset="1" stop-color="#000057"/></linearGradient></defs><path fill="url(#a)" d="M0 0h1200v800H0z"/><path fill="url(#b)" d="M100 0h1100v800H100z"/><path fill="url(#c)" d="M200 0h1000v800H200z"/><path fill="url(#d)" d="M300 0h900v800H300z"/><path fill="url(#e)" d="M400 0h800v800H400z"/><path fill="url(#f)" d="M500 0h700v800H500z"/><path fill="url(#g)" d="M600 0h600v800H600z"/><path fill="url(#h)" d="M700 0h500v800H700z"/><path fill="url(#i)" d="M800 0h400v800H800z"/><path fill="url(#j)" d="M900 0h300v800H900z"/><path fill="url(#k)" d="M1000 0h200v800h-200z"/><path fill="url(#l)" d="M1100 0h100v800h-100z"/></svg>